<svg xmlns="http://www.w3.org/2000/svg" viewBox="0 0 900 640" role="img" aria-labelledby="title desc">
  <title id="title">Simple black carabiner</title>
  <desc id="desc">A simple black carabiner on a white product thumbnail background.</desc>
  <rect width="900" height="640" fill="#fff"/>
  <g transform="translate(450 320) rotate(-12) translate(-450 -320)">
    <path d="M330 115c-83 0-150 67-150 150v110c0 83 67 150 150 150h150c77 0 140-63 140-140 0-39-16-74-42-100l-35 35c17 17 27 40 27 65 0 50-40 90-90 90H330c-55 0-100-45-100-100V265c0-55 45-100 100-100h155c47 0 85 38 85 85 0 19-6 37-17 51l38 31c18-23 29-51 29-82 0-75-60-135-135-135H330Z" fill="#111"/>
    <path d="M517 205c-15-11-36-8-47 7l-107 142c-11 15-8 36 7 47 15 12 36 9 47-6l107-143c11-15 8-36-7-47Z" fill="#fff"/>
    <path d="M548 213c-11 0-20 9-20 20v176c0 11 9 20 20 20h35c11 0 20-9 20-20V233c0-11-9-20-20-20h-35Z" fill="#111"/>
    <path d="M555 250h41" stroke="#2a2a2a" stroke-width="14" stroke-linecap="round"/>
    <path d="M555 390h41" stroke="#2a2a2a" stroke-width="14" stroke-linecap="round"/>
  </g>
  <text x="450" y="586" text-anchor="middle" fill="#6b7068" font-family="Arial, sans-serif" font-size="28" font-weight="700">BLACK CARABINER</text>
</svg>
